<svg width="29" height="29" viewBox="0 0 29 29" fill="none" xmlns="http://www.w3.org/2000/svg">
<path d="M12.8075 3.85517L5.86002 7.71217C5.31781 8.01443 4.86642 8.45634 4.55273 8.99202C4.23904 9.52769 4.0745 10.1376 4.07618 10.7583V18.2413C4.0747 18.8619 4.23935 19.4716 4.55303 20.007C4.86671 20.5425 5.31798 20.9842 5.86002 21.2863L12.8099 25.1445C13.3268 25.4322 13.9087 25.5832 14.5004 25.5832C15.092 25.5832 15.6739 25.4322 16.1909 25.1445L23.1407 21.2875C23.6829 20.9853 24.1343 20.5433 24.448 20.0077C24.7617 19.472 24.9262 18.8621 24.9245 18.2413V10.7583C24.926 10.1378 24.7614 9.52813 24.4477 8.99268C24.134 8.45723 23.6827 8.0155 23.1407 7.71334L16.1909 3.85517C15.6739 3.56749 15.092 3.4165 14.5004 3.4165C13.9087 3.4165 13.3268 3.56749 12.8099 3.85517H12.8075Z" stroke="#307EC4" stroke-width="1.5"/>
<path d="M24.2179 8.66211L14.4996 14.5001M14.4996 14.5001L4.78125 8.66211M14.4996 14.5001V25.5718" stroke="#307EC4" stroke-width="1.5"/>
</svg>
