<svg width="29" height="29" viewBox="0 0 29 29" fill="none" xmlns="http://www.w3.org/2000/svg">
<path d="M5.16602 21.4997C5.16602 20.262 5.65768 19.075 6.53285 18.1998C7.40802 17.3247 8.59501 16.833 9.83268 16.833H19.166C20.4037 16.833 21.5907 17.3247 22.4658 18.1998C23.341 19.075 23.8327 20.262 23.8327 21.4997C23.8327 22.1185 23.5868 22.712 23.1493 23.1496C22.7117 23.5872 22.1182 23.833 21.4993 23.833H7.49935C6.88051 23.833 6.28702 23.5872 5.84943 23.1496C5.41185 22.712 5.16602 22.1185 5.16602 21.4997Z" stroke="#9AA6B1" stroke-width="1.5" stroke-linejoin="round"/>
<path d="M14.5 12.1665C16.433 12.1665 18 10.5995 18 8.6665C18 6.73351 16.433 5.1665 14.5 5.1665C12.567 5.1665 11 6.73351 11 8.6665C11 10.5995 12.567 12.1665 14.5 12.1665Z" stroke="#9AA6B1" stroke-width="1.5"/>
</svg>
